<?xml version="1.0" encoding="UTF-8" standalone="no"?>
<!DOCTYPE svg PUBLIC "-//W3C//DTD SVG 1.1//EN" "http://www.w3.org/Graphics/SVG/1.1/DTD/svg11.dtd">
<svg width="100%" height="100%" viewBox="0 0 513 513" version="1.1" xmlns="http://www.w3.org/2000/svg" xmlns:xlink="http://www.w3.org/1999/xlink" xml:space="preserve" xmlns:serif="http://www.serif.com/" style="fill-rule:evenodd;clip-rule:evenodd;stroke-linejoin:round;stroke-miterlimit:2;">
    <g transform="matrix(1,0,0,1,-125.88,-154.448)">
        <path d="M455.271,380.385C436.14,379.287 419.395,389.839 411.363,405.585C409.59,409.062 406.634,411.793 402.929,413.018C402.883,413.033 402.837,413.049 402.791,413.063C399.641,414.101 396.493,411.416 396.987,408.135C398.072,400.929 399.776,393.926 402.036,387.175C403.263,383.51 405.946,380.567 409.393,378.818C425.183,370.803 435.771,354.034 434.672,334.871C433.328,311.444 413.839,292.307 390.394,291.362C363.968,290.296 342.21,311.404 342.21,337.593C342.21,355.634 352.555,371.223 367.623,378.846C371.039,380.574 373.69,383.496 374.907,387.126C377.174,393.892 378.885,400.912 379.973,408.135C380.466,411.415 377.319,414.101 374.169,413.063C374.122,413.048 374.074,413.032 374.027,413.016C370.325,411.791 367.371,409.062 365.599,405.588C357.569,389.84 340.823,379.286 321.689,380.384C298.262,381.728 279.125,401.217 278.18,424.662C277.115,451.088 298.223,472.846 324.411,472.846C342.394,472.846 357.939,462.568 365.589,447.581C367.369,444.094 370.337,441.356 374.053,440.127C374.096,440.113 374.139,440.098 374.182,440.084C377.334,439.046 380.473,441.734 379.986,445.016C376.719,466.997 367.709,487.1 354.531,503.761C351.895,507.094 354.336,511.999 358.586,511.999L418.37,511.999C422.62,511.999 425.061,507.094 422.425,503.761C409.247,487.1 400.237,466.997 396.97,445.016C396.482,441.733 399.621,439.046 402.774,440.084C402.817,440.098 402.86,440.113 402.903,440.127C406.62,441.356 409.587,444.095 411.367,447.581C419.017,462.569 434.562,472.846 452.545,472.846C478.735,472.846 499.842,451.087 498.776,424.662C497.835,401.218 478.698,381.729 455.271,380.385Z" style="fill:rgb(81,82,98);fill-rule:nonzero;"/>
    </g>
    <g>
        <g transform="matrix(1,0,0,1,-125.88,-154.448)">
            <path d="M308.65,424.663C309.42,405.56 322.269,389.09 339.672,382.915C334.09,380.958 328.027,380.021 321.69,380.384C298.263,381.728 279.126,401.217 278.182,424.662C277.117,451.088 298.225,472.846 324.413,472.846C329.767,472.846 334.896,471.917 339.674,470.242C321.034,463.749 307.803,445.707 308.65,424.663Z" style="fill:rgb(70,70,85);fill-rule:nonzero;"/>
        </g>
        <g transform="matrix(1,0,0,1,-125.88,-154.448)">
            <path d="M378.26,367.908C376.053,360.51 372.678,345.875 372.678,337.595C372.678,314.661 385.638,300.275 403.678,293.96C399.473,292.466 395.015,291.55 390.395,291.364C363.968,290.298 342.211,311.406 342.211,337.595C342.211,354.863 351.7,369.863 365.724,377.803C366.353,378.159 366.977,378.52 367.624,378.847C371.04,380.576 373.693,383.497 374.908,387.127C377.175,393.893 378.887,400.913 379.974,408.136C380.399,410.957 378.125,413.324 375.477,413.273L375.487,413.308C376.565,413.683 383.253,414.417 384.678,409.98C386.062,405.677 383.886,386.766 378.26,367.908Z" style="fill:rgb(70,70,85);fill-rule:nonzero;"/>
        </g>
        <g transform="matrix(1,0,0,1,-125.88,-154.448)">
            <path d="M455.271,380.385C436.14,379.287 419.395,389.839 411.363,405.585C409.59,409.062 406.634,411.793 402.929,413.018C402.883,413.033 401.877,413.287 401.435,413.292C401.435,413.292 418.669,415.687 432.456,397.384C440.587,386.59 449.333,382.171 460.436,381.017C458.74,380.718 457.023,380.485 455.271,380.385Z" style="fill:rgb(70,70,85);fill-rule:nonzero;"/>
        </g>
        <g transform="matrix(1,0,0,1,-125.88,-154.448)">
            <path d="M455.271,472.765C436.14,473.863 419.395,463.311 411.363,447.565C409.59,444.088 406.634,441.357 402.929,440.132C402.883,440.117 401.877,439.863 401.435,439.858C401.435,439.858 418.669,437.463 432.456,455.766C440.587,466.56 449.333,470.979 460.436,472.133C458.74,472.432 457.023,472.664 455.271,472.765Z" style="fill:rgb(70,70,85);fill-rule:nonzero;"/>
        </g>
        <g transform="matrix(1,0,0,1,-125.88,-154.448)">
            <path d="M377.057,503.762C382.935,488.98 388.877,447.619 378.808,441.317C378.808,441.317 380.204,443.571 379.989,445.017C376.722,466.998 367.712,487.101 354.534,503.762C351.898,507.095 354.339,512 358.589,512L381.112,512C376.863,512 375.487,507.711 377.057,503.762Z" style="fill:rgb(70,70,85);fill-rule:nonzero;"/>
        </g>
    </g>
</svg>
