<?xml version="1.0" encoding="UTF-8" standalone="no"?>
<!DOCTYPE svg PUBLIC "-//W3C//DTD SVG 1.1//EN" "http://www.w3.org/Graphics/SVG/1.1/DTD/svg11.dtd">
<svg width="100%" height="100%" viewBox="0 0 513 513" version="1.1" xmlns="http://www.w3.org/2000/svg" xmlns:xlink="http://www.w3.org/1999/xlink" xml:space="preserve" xmlns:serif="http://www.serif.com/" style="fill-rule:evenodd;clip-rule:evenodd;stroke-linejoin:round;stroke-miterlimit:2;">
    <g transform="matrix(1,0,0,1,-126.773,127.665)">
        <path d="M395.166,3.298C423.763,40.286 467.367,83.897 504.349,112.499C508.744,115.898 508.744,122.467 504.349,125.866C467.367,154.468 423.763,198.078 395.166,235.067C391.767,239.464 385.196,239.464 381.798,235.067C353.201,198.079 309.597,154.468 272.615,125.866C268.22,122.467 268.22,115.898 272.615,112.499C309.596,83.897 353.2,40.286 381.797,3.298C385.196,-1.099 391.766,-1.099 395.166,3.298Z" style="fill:rgb(255,100,100);fill-rule:nonzero;"/>
    </g>
    <g transform="matrix(1,0,0,1,-126.773,127.665)">
        <path d="M387.453,235.065C374.263,198.077 354.153,154.466 337.097,125.864C335.07,122.465 335.07,115.896 337.097,112.497C354.153,83.895 374.264,40.285 387.453,3.296C388.108,1.458 389.445,0.651 390.593,0.293C387.472,-0.515 383.983,0.47 381.797,3.296C353.2,40.285 309.596,83.896 272.614,112.497C268.219,115.896 268.219,122.465 272.614,125.864C309.596,154.465 353.2,198.076 381.797,235.065C383.982,237.891 387.472,238.876 390.592,238.068C389.445,237.711 388.109,236.904 387.453,235.065Z" style="fill:rgb(210,85,90);fill-rule:nonzero;"/>
    </g>
</svg>
