<?xml version="1.0" encoding="UTF-8" standalone="no"?>
<!DOCTYPE svg PUBLIC "-//W3C//DTD SVG 1.1//EN" "http://www.w3.org/Graphics/SVG/1.1/DTD/svg11.dtd">
<svg width="100%" height="100%" viewBox="0 0 513 513" version="1.1" xmlns="http://www.w3.org/2000/svg" xmlns:xlink="http://www.w3.org/1999/xlink" xml:space="preserve" xmlns:serif="http://www.serif.com/" style="fill-rule:evenodd;clip-rule:evenodd;stroke-linejoin:round;stroke-miterlimit:2;">
    <g transform="matrix(1,0,0,1,137.932,129.451)">
        <path d="M123.895,1.303C121.123,-0.388 117.697,-0.388 114.926,1.303C93.7,14.252 4.356,72.745 4.356,139.898C4.356,174.8 32.605,203.093 67.451,203.093C78.857,203.093 89.546,200.054 98.771,194.747C101.416,193.225 104.509,195.915 103.471,198.806C98.549,212.516 91.58,225.235 82.926,236.577C79.621,240.909 82.795,247.19 88.209,247.19L151.281,247.19C156.697,247.19 159.864,240.906 156.557,236.572C148.001,225.358 141.094,212.8 136.183,199.268C135.14,196.394 138.189,193.699 140.843,195.177C149.885,200.214 160.287,203.093 171.371,203.093C206.218,203.093 234.466,174.8 234.466,139.898C234.466,72.745 145.122,14.252 123.895,1.303Z" style="fill:rgb(81,82,98);fill-rule:nonzero;"/>
    </g>
    <g>
        <g transform="matrix(1,0,0,1,137.932,129.451)">
            <path d="M93.355,197.488C22.467,158.235 89.05,40.518 120.031,0.12C118.277,-0.009 116.498,0.343 114.926,1.303C93.7,14.252 4.356,72.745 4.356,139.897C4.356,174.799 32.605,203.092 67.451,203.092C76.693,203.093 85.45,201.068 93.355,197.488Z" style="fill:rgb(70,70,85);fill-rule:nonzero;"/>
        </g>
        <g transform="matrix(1,0,0,1,137.932,129.451)">
            <path d="M107.518,237.961C111.598,204.046 111.421,194.395 100.983,194.395C102.813,194.768 104.219,196.722 103.471,198.806C98.55,212.516 91.581,225.234 82.926,236.577C79.621,240.908 82.795,247.19 88.209,247.19L112.062,247.19C107.299,247.19 107.111,241.349 107.518,237.961Z" style="fill:rgb(70,70,85);fill-rule:nonzero;"/>
        </g>
    </g>
</svg>
